<svg width="640" height="480" viewBox="0 0 640 480" fill="none" xmlns="http://www.w3.org/2000/svg">
  <rect width="640" height="480" rx="36" fill="#E8EDF8"/>
  <circle cx="516" cy="132" r="90" fill="#355CBB" fill-opacity="0.24"/>
  <circle cx="135" cy="367" r="110" fill="#17222F" fill-opacity="0.08"/>
  <rect x="202" y="118" width="236" height="224" rx="32" fill="#FBFCFF" stroke="#17222F" stroke-opacity="0.12"/>
  <rect x="247" y="88" width="146" height="44" rx="18" fill="#17222F"/>
  <path d="M245 193C245 178.641 256.641 167 271 167H369C383.359 167 395 178.641 395 193V248C395 262.359 383.359 274 369 274H271C256.641 274 245 262.359 245 248V193Z" fill="#355CBB" fill-opacity="0.18"/>
  <text x="320" y="220" text-anchor="middle" fill="#20355D" font-family="Trebuchet MS, sans-serif" font-size="20">Nocturne</text>
  <text x="320" y="246" text-anchor="middle" fill="#20355D" font-family="Trebuchet MS, sans-serif" font-size="20">Mix</text>
  <rect x="245" y="292" width="150" height="18" rx="9" fill="#17222F" fill-opacity="0.1"/>
  <rect x="245" y="322" width="116" height="18" rx="9" fill="#17222F" fill-opacity="0.08"/>
</svg>
